<svg xmlns="http://www.w3.org/2000/svg" xmlns:xlink="http://www.w3.org/1999/xlink" width="1080" zoomAndPan="magnify" viewBox="0 0 810 809.999993" height="1080" preserveAspectRatio="xMidYMid meet" version="1.0"><defs><g/><clipPath id="f2aab40fec"><path d="M 496.816406 171 L 772 171 L 772 647 L 496.816406 647 Z M 496.816406 171 " clip-rule="nonzero"/></clipPath></defs><g clip-path="url(#f2aab40fec)"><path fill="#ff0000" d="M 495.414062 193.640625 C 498.035156 180.714844 509.476562 171.371094 522.753906 171.371094 L 574.984375 171.371094 C 588.261719 171.371094 599.703125 180.714844 602.324219 193.640625 L 614.988281 254.785156 C 627.304688 260.023438 638.835938 266.75 649.316406 274.699219 L 708.535156 255.046875 C 721.113281 250.851562 734.914062 256.09375 741.550781 267.625 L 767.667969 312.867188 C 774.304688 324.398438 771.949219 338.898438 761.992188 347.71875 L 715.4375 389.121094 C 716.222656 395.582031 716.570312 402.222656 716.570312 408.949219 C 716.570312 415.671875 716.136719 422.3125 715.4375 428.773438 L 762.078125 470.265625 C 772.035156 479.085938 774.304688 493.671875 767.753906 505.113281 L 741.640625 550.359375 C 735 561.800781 721.199219 567.128906 708.625 562.9375 L 649.402344 543.285156 C 638.835938 551.234375 627.304688 557.871094 615.078125 563.199219 L 602.5 624.253906 C 599.792969 637.265625 588.347656 646.527344 575.160156 646.527344 L 522.925781 646.527344 C 509.652344 646.527344 498.210938 637.179688 495.589844 624.253906 L 483.011719 563.199219 C 470.695312 557.957031 459.253906 551.234375 448.683594 543.285156 L 389.203125 562.9375 C 376.625 567.128906 362.824219 561.886719 356.1875 550.359375 L 330.070312 505.113281 C 323.433594 493.585938 325.789062 479.085938 335.746094 470.265625 L 382.390625 428.773438 C 381.605469 422.3125 381.253906 415.671875 381.253906 408.949219 C 381.253906 402.222656 381.691406 395.582031 382.390625 389.121094 L 335.746094 347.632812 C 325.789062 338.808594 323.519531 324.222656 330.070312 312.78125 L 356.1875 267.535156 C 362.824219 256.007812 376.625 250.765625 389.203125 254.957031 L 448.421875 274.609375 C 458.992188 266.664062 470.519531 260.023438 482.75 254.695312 Z M 548.871094 478.824219 C 587.476562 478.648438 618.65625 447.292969 618.484375 408.6875 C 618.308594 370.078125 586.953125 338.898438 548.34375 339.070312 C 509.738281 339.246094 478.554688 370.601562 478.730469 409.210938 C 478.90625 447.816406 510.261719 479 548.871094 478.824219 Z M 548.871094 478.824219 " fill-opacity="1" fill-rule="nonzero"/></g><g fill="#ff0000" fill-opacity="1"><g transform="translate(-18.117271, 645.306624)"><g><path d="M 527.15625 -474.734375 C 546.351562 -474.734375 559.410156 -468.585938 566.328125 -456.296875 C 572.472656 -445.535156 575.546875 -426.90625 575.546875 -400.40625 L 575.546875 -19.59375 C 575.546875 -10.757812 573.429688 -5.1875 569.203125 -2.875 C 564.984375 -0.570312 561.53125 0.578125 558.84375 0.578125 L 509.296875 0.578125 C 506.992188 0.578125 503.726562 -0.570312 499.5 -2.875 C 495.269531 -5.1875 493.15625 -10.757812 493.15625 -19.59375 L 493.15625 -365.84375 C 493.15625 -366.226562 493.15625 -366.515625 493.15625 -366.703125 C 493.15625 -366.890625 493.15625 -366.984375 493.15625 -366.984375 L 490.28125 -366.984375 C 489.507812 -366.984375 489.125 -366.601562 489.125 -365.84375 L 390.03125 -121.5625 C 386.195312 -109.65625 382.164062 -99.285156 377.9375 -90.453125 C 376.019531 -86.222656 373.8125 -82.378906 371.3125 -78.921875 C 368.8125 -75.472656 366.410156 -72.210938 364.109375 -69.140625 C 358.347656 -62.992188 352.203125 -58.765625 345.671875 -56.453125 C 339.523438 -54.148438 331.84375 -53 322.625 -53 L 299.015625 -53 C 290.554688 -53 282.875 -54.148438 275.96875 -56.453125 C 272.507812 -57.609375 269.335938 -59.335938 266.453125 -61.640625 C 263.578125 -63.953125 260.601562 -66.453125 257.53125 -69.140625 C 252.53125 -75.285156 247.921875 -82.390625 243.703125 -90.453125 C 239.859375 -99.285156 235.828125 -109.65625 231.609375 -121.5625 L 133.078125 -365.265625 C 132.703125 -366.410156 132.128906 -366.984375 131.359375 -366.984375 L 128.46875 -366.984375 C 128.46875 -366.984375 128.46875 -366.890625 128.46875 -366.703125 C 128.46875 -366.515625 128.46875 -366.226562 128.46875 -365.84375 L 128.46875 -19.59375 C 128.46875 -10.757812 126.453125 -5.1875 122.421875 -2.875 C 118.390625 -0.570312 115.03125 0.578125 112.34375 0.578125 L 62.796875 0.578125 C 60.109375 0.578125 56.648438 -0.570312 52.421875 -2.875 C 48.203125 -5.1875 46.09375 -10.757812 46.09375 -19.59375 L 46.09375 -400.40625 C 46.09375 -426.90625 49.164062 -445.535156 55.3125 -456.296875 C 62.21875 -468.585938 75.46875 -474.734375 95.0625 -474.734375 L 148.0625 -474.734375 C 156.507812 -474.734375 163.234375 -473.960938 168.234375 -472.421875 C 174.753906 -470.503906 180.128906 -467.625 184.359375 -463.78125 C 186.273438 -461.476562 188.289062 -458.984375 190.40625 -456.296875 C 192.519531 -453.609375 194.34375 -450.535156 195.875 -447.078125 C 197.414062 -443.617188 199.050781 -439.679688 200.78125 -435.265625 C 202.507812 -430.847656 204.140625 -425.953125 205.671875 -420.578125 L 307.078125 -165.921875 C 307.460938 -164.773438 307.84375 -164.101562 308.21875 -163.90625 C 308.601562 -163.71875 308.796875 -163.625 308.796875 -163.625 L 314.5625 -163.625 C 315.332031 -163.625 315.910156 -164.390625 316.296875 -165.921875 L 418.265625 -420.578125 C 420.179688 -425.953125 421.90625 -430.847656 423.4375 -435.265625 C 424.976562 -439.679688 426.519531 -443.617188 428.0625 -447.078125 C 429.976562 -450.535156 431.894531 -453.609375 433.8125 -456.296875 C 435.738281 -458.984375 437.660156 -461.476562 439.578125 -463.78125 C 444.191406 -468.007812 449.378906 -470.890625 455.140625 -472.421875 C 460.128906 -473.960938 466.847656 -474.734375 475.296875 -474.734375 Z M 527.15625 -474.734375 "/></g></g></g></svg>